<?xml version="1.0" standalone="no"?>
<!DOCTYPE svg PUBLIC "-//W3C//DTD SVG 1.1//EN" "http://www.w3.org/Graphics/SVG/1.1/DTD/svg11.dtd" >
<svg xmlns="http://www.w3.org/2000/svg" xmlns:xlink="http://www.w3.org/1999/xlink" version="1.1">
<metadata></metadata>
<defs>
<font id="sverdlovskregular" horiz-adv-x="667" >
<font-face units-per-em="2048" ascent="1638" descent="-410" />
<missing-glyph horiz-adv-x="471" />
<glyph horiz-adv-x="0" />
<glyph horiz-adv-x="0" />
<glyph horiz-adv-x="682" />
<glyph unicode="&#xa;" horiz-adv-x="0" />
<glyph unicode="&#xd;" horiz-adv-x="0" />
<glyph unicode=" "  horiz-adv-x="471" />
<glyph unicode="&#x09;" horiz-adv-x="471" />
<glyph unicode="&#xa0;" horiz-adv-x="471" />
<glyph unicode="!" horiz-adv-x="151" d="M41 35q0 14 10.5 24.5t24.5 10.5t24.5 -10.5t10.5 -24.5t-10.5 -24.5t-24.5 -10.5t-24.5 10.5t-10.5 24.5zM41 1439h70l-18 -1251h-35q-3 208 -8.5 625.5t-8.5 625.5z" />
<glyph unicode="&#x22;" horiz-adv-x="243" d="M41 1385q0 14 10.5 24.5t24.5 10.5q17 0 27 -13q6 -7 9 -18q7 -22 -2.5 -42.5t-21.5 -30.5q-10 -8 -27 -13q-1 3 -2.5 8t-2.5 7q4 1 11 8.5t10 18.5q1 2 1 5h-2q-14 0 -24.5 10.5t-10.5 24.5zM129 1385q0 14 10.5 24.5t24.5 10.5q16 0 26 -13h1q6 -7 9 -18 q7 -22 -2.5 -42.5t-21.5 -30.5q-10 -8 -27 -13q-1 3 -2.5 8t-2.5 7q4 1 11 8.5t10 18.5q1 2 1 5h-2q-14 0 -24.5 10.5t-10.5 24.5z" />
<glyph unicode="#" horiz-adv-x="1124" d="M41 545v35h347l74 308h-337v35h346l118 493h35l-119 -493h212l119 493h36l-118 -493h329v-35h-337l-75 -308h328v-35h-336l-131 -545h-37l131 545h-212l-131 -545h-35l131 545h-338zM423 580h212l74 308h-212z" />
<glyph unicode="$" horiz-adv-x="657" d="M41 195q9 11 29 33t30 34q3 -78 44 -141q63 -99 167 -105v671q-58 42 -85.5 64t-70 71.5t-69.5 106.5q-46 97 -45 222q1 114 79.5 197.5t190.5 92.5v78h35v-77q74 -3 136.5 -41t100.5 -99q23 -39 33 -74q-40 -46 -59 -68q-3 81 -43 142q-29 46 -73 74t-95 31v-671 q45 -33 64 -48t55 -47.5t61 -67.5t46 -79q45 -95 44 -222q-1 -114 -79.5 -197.5t-190.5 -92.5v-78h-35v77q-74 3 -136.5 41t-100.5 99q-23 39 -33 74zM109 1114q0 -9 1.5 -26.5t4.5 -33t9.5 -37.5t15.5 -44q29 -69 70.5 -117t100.5 -93v643q-84 -10 -142 -83t-59 -172 q0 -2 -0.5 -15t-0.5 -22zM346 17q84 10 142 83t59 172q0 1 0.5 18t0 29.5t-3 34t-9 46t-17.5 50.5q-29 70 -71 118t-101 93v-644z" />
<glyph unicode="%" horiz-adv-x="1243" d="M41 1160q0 124 87.5 212t212.5 88t212.5 -88t87.5 -212t-87.5 -212t-212.5 -88t-212.5 88t-87.5 212zM111 1160q0 -110 67.5 -188t162.5 -78t163 78t68 188t-68 188t-163 78t-162.5 -78t-67.5 -188zM171 0l889 1460h42l-891 -1460h-40zM601 300q0 124 87.5 212t212.5 88 t213 -88t88 -212t-88 -212t-213 -88t-212.5 88t-87.5 212zM671 300q0 -110 67.5 -187.5t162.5 -77.5t163 77.5t68 187.5t-68 188t-163 78t-162.5 -78t-67.5 -188z" />
<glyph unicode="&#x26;" horiz-adv-x="1028" d="M41 425q3 40 11 68q26 92 96.5 161t180.5 135q-106 135 -132 272q-7 36 -9 77q0 124 88 212t212 88t212 -88.5t88 -212.5q0 -23 -8 -47q-8 -26 -23 -51.5t-31 -45t-42.5 -42.5t-45.5 -37.5t-54 -36.5t-54 -33t-59.5 -34t-57.5 -33q47 -56 120 -131q149 -153 330 -300 q6 39 3 79h69q0 -63 -17 -123q46 -36 70 -54q-28 -17 -32 -19q-34 24 -50 36q-49 -128 -163.5 -208t-254.5 -80q-184 0 -315.5 132t-131.5 316zM111 425q-8 -109 41 -204.5t139.5 -152t196.5 -56.5q130 0 232.5 82.5t134.5 207.5q-183 136 -350 298q-96 93 -142 147 q-95 -59 -156 -121t-85 -143q-6 -18 -11 -58zM256 1138q3 -34 5 -46q21 -141 119 -273q9 5 47 27t49 28.5t43.5 26t45 29t37.5 28t37 32t28.5 31.5t26 36t16.5 37q8 24 9 43q3 40 -12 85.5t-43.5 86t-75 67.5t-100.5 27q-100 0 -171 -79.5t-61 -185.5z" />
<glyph unicode="'" horiz-adv-x="155" d="M41 1385q0 14 10.5 24.5t24.5 10.5q17 0 27 -13q6 -7 9 -18q7 -22 -2.5 -42.5t-21.5 -30.5q-10 -8 -27 -13q-1 3 -2.5 8t-2.5 7q4 1 11 8.5t10 18.5q1 2 1 5h-2q-14 0 -24.5 10.5t-10.5 24.5z" />
<glyph unicode="(" horiz-adv-x="274" d="M41 708q0 372 157 709h34q-124 -343 -124 -709q0 -367 124 -708h-34q-157 340 -157 708z" />
<glyph unicode=")" horiz-adv-x="274" d="M41 0q124 343 124 708q0 368 -124 709h35q156 -338 156 -709q0 -373 -156 -708h-35z" />
<glyph unicode="+" horiz-adv-x="561" d="M41 703v35h222v222h35v-222h221v-35h-221v-222h-35v222h-222z" />
<glyph unicode="," horiz-adv-x="155" d="M41 33q0 14 10.5 24.5t24.5 10.5q17 0 27 -13q6 -7 9 -18q7 -22 -2.5 -42.5t-21.5 -30.5q-10 -8 -27 -13q-1 3 -2.5 8t-2.5 8q16 5 21 26q1 2 1 6h-2q-14 0 -24.5 10t-10.5 24z" />
<glyph unicode="-" horiz-adv-x="561" d="M41 702v35h478v-35h-478z" />
<glyph unicode="." horiz-adv-x="151" d="M41 35q0 14 10.5 24.5t24.5 10.5t24.5 -10.5t10.5 -24.5t-10.5 -24.5t-24.5 -10.5t-24.5 10.5t-10.5 24.5z" />
<glyph unicode="/" horiz-adv-x="612" d="M41 0l495 1417h36l-494 -1417h-37z" />
<glyph unicode="0" horiz-adv-x="1110" d="M41 707q0 148 40.5 283.5t109.5 233t164 155.5t199 58t199 -58t164 -155.5t109.5 -233t40.5 -283.5t-40.5 -283.5t-109.5 -233t-164 -155.5t-199 -58t-199 58t-164 155.5t-109.5 233t-40.5 283.5zM111 707q0 -189 59 -349t161.5 -253t222.5 -93q121 0 223 93t161.5 253 t59.5 349t-59.5 349.5t-162 253.5t-222.5 93t-222.5 -93t-161.5 -253.5t-59 -349.5z" />
<glyph unicode="1" horiz-adv-x="296" d="M41 1083q27 17 51 41q22 22 41 51q39 57 63 127q23 69 29 138q5 0 14.5 -0.5t14.5 -0.5v-1439h-69v1185q-47 -80 -125 -131q-1 -1 -4.5 -2.5t-5.5 -2.5z" />
<glyph unicode="2" horiz-adv-x="866" d="M41 0q1 28 7 69q15 103 60 190q46 89 123 162.5t155 123.5t152.5 100.5t130.5 117t75 149.5q10 45 10 79q0 171 -111 292t-267 121q-80 0 -151.5 -34.5t-124.5 -95.5l-17 56q125 109 293 109q185 0 316 -131.5t131 -316.5q0 -40 -9 -83q-14 -65 -52 -120t-89.5 -97 t-112 -80.5t-124.5 -79.5t-122 -86t-110 -107t-83 -135q-28 -68 -38 -134h641l60 -69h-743z" />
<glyph unicode="3" horiz-adv-x="813" d="M41 77q4 4 11.5 11t13 13t10.5 11q51 -48 112 -73q63 -27 135 -27q157 0 267.5 120.5t110.5 291.5t-110.5 292t-267.5 121q-20 0 -41 -3q-25 -3 -47 -9q65 87 197 261t197 261h-489l-60 69h639q-69 -91 -206.5 -272.5t-206.5 -272.5h17q185 0 316 -131t131 -316 t-131 -316t-316 -131q-120 0 -227 62q-30 17 -55 38z" />
<glyph unicode="4" horiz-adv-x="905" d="M41 525l22 34l18 28l523 809l15 22h55v-859h188q-5 -6 -15 -17t-15 -17h-158v-524h-70v524h-563zM105 559h499v773l-482 -745z" />
<glyph unicode="5" horiz-adv-x="813" d="M41 78q4 4 11.5 11t13 13t10.5 11q18 -18 39 -33q7 -5 28 -18h1q10 -6 16 -9q3 -1 9 -4.5t9 -5.5q2 -1 8 -3t8 -3q5 -3 11 -4q10 -4 15 -5q6 -2 14 -4q10 -3 32 -7q3 -1 9.5 -2t9.5 -1h2q24 -2 36 -2q156 0 267 120.5t111 291.5q0 121 -59 221t-155 151q-14 8 -34 16 q-62 25 -130 25q-25 0 -57 -5q-3 0 -9.5 -2t-9.5 -2q-39 -9 -77 -27q-24 -12 -35 -19v634h582l-60 -69h-487v-502q45 17 93 23q27 4 60 4q185 0 316 -131.5t131 -316.5t-131 -316t-316 -131q-4 0 -12 0.5t-12 0.5q-10 0 -15 1q-6 0 -18 2l-6 1q-18 2 -27 4q-3 1 -10.5 3 t-11.5 3q-10 2 -17 4q-21 6 -48 18q-8 3 -24 11q-32 15 -60 36q-9 6 -16 13q-1 0 -2.5 2t-2.5 2z" />
<glyph unicode="6" horiz-adv-x="976" d="M41 424q0 48 9 91q14 72 56 141v1l28 41l512 740h83l-480 -636q110 70 239 70q185 0 316 -131.5t131 -316.5t-131 -316t-316 -131t-316 131t-131 316zM110 424q0 -171 110.5 -291.5t267.5 -120.5q156 0 267 120.5t111 291.5t-111 292t-267 121q-157 0 -267.5 -121 t-110.5 -292z" />
<glyph unicode="7" horiz-adv-x="663" d="M41 1416h581q-68 -236 -205.5 -708.5t-205.5 -708.5h-80l428 1348h-458z" />
<glyph unicode="8" horiz-adv-x="976" d="M41 425q0 155 95 275.5t242 157.5q-84 33 -137 109.5t-53 170.5q0 124 88 212t212 88q125 0 213 -88t88 -212q0 -94 -53 -170t-138 -110q147 -37 242 -157.5t95 -275.5q0 -185 -131 -316t-316 -131t-316 131t-131 316zM111 425q0 -171 110 -292t267 -121q156 0 267 121 t111 292t-111 291.5t-267 120.5q-157 0 -267 -120.5t-110 -291.5zM258 1138q0 -110 67.5 -188t162.5 -78t163 78t68 188t-68 187.5t-163 77.5t-162.5 -77.5t-67.5 -187.5z" />
<glyph unicode="9" horiz-adv-x="976" d="M41 991q0 185 131 316t316 131t316 -131t131 -316q0 -47 -9 -91q-15 -74 -55 -141l-1 -1l-28 -41l-512 -740h-82l479 636q-110 -70 -239 -70q-185 0 -316 131.5t-131 316.5zM111 991q0 -171 110.5 -292t266.5 -121q157 0 267.5 121t110.5 292t-110.5 291.5t-267.5 120.5 q-156 0 -266.5 -120.5t-110.5 -291.5z" />
<glyph unicode=":" horiz-adv-x="151" d="M41 35q0 14 10.5 24.5t24.5 10.5t24.5 -10.5t10.5 -24.5t-10.5 -24.5t-24.5 -10.5t-24.5 10.5t-10.5 24.5zM41 851q0 14 10.5 24.5t24.5 10.5t24.5 -10.5t10.5 -24.5t-10.5 -24.5t-24.5 -10.5t-24.5 10.5t-10.5 24.5z" />
<glyph unicode=";" horiz-adv-x="155" d="M41 33q0 14 10.5 24.5t24.5 10.5q17 0 27 -13q6 -7 9 -18q7 -22 -2.5 -42.5t-21.5 -30.5q-10 -8 -27 -13q-1 3 -2.5 8t-2.5 8q16 5 21 26q1 2 1 6h-2q-14 0 -24.5 10t-10.5 24zM41 850q0 14 10.5 24.5t24.5 10.5t24.5 -10.5t10.5 -24.5t-10.5 -24.5t-24.5 -10.5 t-24.5 10.5t-10.5 24.5z" />
<glyph unicode="=" horiz-adv-x="561" d="M41 631v35h478v-35h-478zM41 771v35h478v-35h-478z" />
<glyph unicode="?" horiz-adv-x="874" d="M41 1276q63 76 153 119.5t192 43.5q185 0 316 -131.5t131 -316.5q0 -87 -33 -161q-22 -50 -55 -89.5t-69 -66.5t-72 -52.5t-74 -61t-65 -77.5q-76 -117 -70 -295h-33q-5 189 78 317q27 41 64.5 79t71.5 66t67.5 59t61 73.5t42.5 94.5q17 57 17 114q0 171 -111 292 t-267 121q-101 0 -187 -54t-136 -145zM345 35q0 14 10.5 24.5t24.5 10.5t24.5 -10.5t10.5 -24.5t-10.5 -24.5t-24.5 -10.5t-24.5 10.5t-10.5 24.5z" />
<glyph unicode="@" horiz-adv-x="976" d="M41 703q0 185 131 316t316 131t316 -131t131 -316q0 -73 -21 -137q0 -2 -1.5 -5.5t-2.5 -5.5q-14 -36 -44 -59.5t-66 -25.5h-16q-33 2 -61.5 22.5t-43.5 52.5q-74 -90 -191 -90q-103 0 -175.5 72.5t-72.5 175.5t72.5 175.5t175.5 72.5q106 0 179 -76v47h69v-310 q0 -36 19 -59.5t41 -22.5q14 1 28.5 12.5t21.5 27.5l4 16l1 1q15 55 15 116q0 171 -111 291.5t-267 120.5q-157 0 -267 -120.5t-110 -291.5t110 -291.5t267 -120.5q122 0 222 79l14 -46q-109 -68 -236 -68q-185 0 -316 131t-131 316zM309 703q0 -88 52.5 -150.5t126.5 -62.5 q73 0 125 60.5t53 147.5q0 1 0.5 2.5t0.5 2.5t-0.5 2.5t-0.5 2.5q-2 86 -53.5 147.5t-124.5 61.5q-74 0 -126.5 -62.5t-52.5 -151.5z" />
<glyph unicode="A" horiz-adv-x="890" d="M41 0l369 1378q9 10 26.5 30t26.5 30l385 -1438h-69l-142 530h-418l-142 -530h-36zM229 565h399l-200 745z" />
<glyph unicode="&#xc4;" horiz-adv-x="890" d="M41 0l369 1378q9 10 26.5 30t26.5 30l385 -1438h-69l-142 530h-418l-142 -530h-36zM229 565h399l-200 745z" />
<glyph unicode="&#xc3;" horiz-adv-x="890" d="M41 0l369 1378q9 10 26.5 30t26.5 30l385 -1438h-69l-142 530h-418l-142 -530h-36zM229 565h399l-200 745z" />
<glyph unicode="&#xc2;" horiz-adv-x="890" d="M41 0l369 1378q9 10 26.5 30t26.5 30l385 -1438h-69l-142 530h-418l-142 -530h-36zM229 565h399l-200 745z" />
<glyph unicode="&#xc1;" horiz-adv-x="890" d="M41 0l369 1378q9 10 26.5 30t26.5 30l385 -1438h-69l-142 530h-418l-142 -530h-36zM229 565h399l-200 745z" />
<glyph unicode="&#xc0;" horiz-adv-x="890" d="M41 0l369 1378q9 10 26.5 30t26.5 30l385 -1438h-69l-142 530h-418l-142 -530h-36zM229 565h399l-200 745z" />
<glyph unicode="B" horiz-adv-x="669" d="M41 0v1404q9 5 27 13q53 21 112 21q124 0 212 -88t88 -212q0 -85 -44 -156t-116 -109q-20 -10 -30 -14q23 -6 62 -21q123 -51 199 -163t76 -250q0 -185 -131 -316t-316 -131q-70 0 -139 22zM111 20q37 -8 69 -8q157 0 267.5 121t110.5 292t-110.5 292t-267.5 121h-69 v-818zM111 873h69q95 0 163 77.5t68 187.5t-68 188t-163 78q-33 0 -69 -13v-518z" />
<glyph unicode="C" horiz-adv-x="1284" d="M41 708q0 148 58 283.5t155.5 233t233 155.5t283.5 58q268 0 472 -172q-7 -8 -22.5 -26t-23.5 -27q-134 115 -302 155q-80 19 -159 19q-86 -1 -172 -23q-164 -44 -285 -164q-127 -126 -169 -300q-19 -78 -18 -157q0 -97 28 -193q50 -176 184 -309q108 -108 246 -162 q126 -49 255 -49h24q142 5 268 67q73 37 135 91l11 -38q-80 -68 -178 -110q-139 -62 -294 -62q-148 0 -283.5 58t-233 155.5t-155.5 233t-58 283.5z" />
<glyph unicode="D" horiz-adv-x="952" d="M41 -9v1434q30 7 70 10q35 3 70 3q123 0 243 -42q154 -54 272 -171q140 -141 190 -329q25 -94 25 -188t-25 -188q-50 -188 -190 -328q-118 -118 -272 -172q-120 -42 -244 -42q-34 0 -69 3q-40 3 -70 10zM111 16q23 -3 69 -3q134 0 256.5 55t211 148t141 222t52.5 270 t-52.5 270t-141 222.5t-211 148.5t-256.5 55q-38 0 -69 -4v-1384z" />
<glyph unicode="E" horiz-adv-x="499" d="M41 0v1417h417q-5 -6 -15 -17.5t-15 -17.5h-317v-489h277q-4 -6 -12.5 -17.5t-12.5 -17.5h-252v-824h317q5 -6 15 -17t15 -17h-417z" />
<glyph unicode="&#xca;" horiz-adv-x="499" d="M41 0v1417h417q-5 -6 -15 -17.5t-15 -17.5h-317v-489h277q-4 -6 -12.5 -17.5t-12.5 -17.5h-252v-824h317q5 -6 15 -17t15 -17h-417z" />
<glyph unicode="&#xc9;" horiz-adv-x="499" d="M41 0v1417h417q-5 -6 -15 -17.5t-15 -17.5h-317v-489h277q-4 -6 -12.5 -17.5t-12.5 -17.5h-252v-824h317q5 -6 15 -17t15 -17h-417z" />
<glyph unicode="&#xc8;" horiz-adv-x="499" d="M41 0v1417h417q-5 -6 -15 -17.5t-15 -17.5h-317v-489h277q-4 -6 -12.5 -17.5t-12.5 -17.5h-252v-824h317q5 -6 15 -17t15 -17h-417z" />
<glyph unicode="F" horiz-adv-x="499" d="M41 0v1417h417q-5 -6 -15 -17.5t-15 -17.5h-317v-489h277q-4 -6 -12.5 -17.5t-12.5 -17.5h-252v-858h-70z" />
<glyph unicode="G" horiz-adv-x="1284" d="M41 708q0 148 58 283.5t155.5 233.5t233 156t283.5 58q132 0 253.5 -45.5t218.5 -127.5q-7 -8 -22.5 -26t-23.5 -27q-134 116 -302 155q-80 19 -159 19q-87 0 -172 -23q-164 -43 -285 -164q-127 -127 -169 -300q-18 -79 -18 -157q0 -96 28 -193q50 -175 184 -309 q108 -108 246 -162q125 -49 255 -49h24q142 5 268 67q37 19 76 45v280h-234q-5 6 -15 17.5t-15 17.5h334v-307q-4 -3 -13 -9.5t-13 -10.5q-72 -55 -152 -90q-139 -62 -294 -62q-148 0 -283.5 58t-233 155.5t-155.5 233t-58 283.5z" />
<glyph unicode="H" d="M41 0v1417h69v-837h447v837h69v-1417h-69v546h-447v-546h-69z" />
<glyph unicode="I" horiz-adv-x="151" d="M41 0v1417h70v-1417h-70z" />
<glyph unicode="&#xce;" horiz-adv-x="151" d="M41 0v1417h70v-1417h-70z" />
<glyph unicode="&#xcd;" horiz-adv-x="151" d="M41 0v1417h70v-1417h-70z" />
<glyph unicode="&#xcc;" horiz-adv-x="151" d="M41 0v1417h70v-1417h-70z" />
<glyph unicode="J" horiz-adv-x="638" d="M41 256h70q0 -101 61 -172t147 -71t147.5 71t61.5 172v1161h70v-1161q0 -115 -82 -196.5t-197 -81.5t-196.5 81.5t-81.5 196.5z" />
<glyph unicode="K" d="M41 0v1417h70v-526l409 526h44l-435 -559l496 -858h-80l-434 751v-751h-70z" />
<glyph unicode="L" horiz-adv-x="499" d="M41 0v1417h70v-1383h317q5 -6 15 -17t15 -17h-417z" />
<glyph unicode="M" horiz-adv-x="1243" d="M41 0q61 228 183.5 685.5t183.5 686.5l54 66l159 -591l141 525l54 66q64 -240 192.5 -719t192.5 -719h-72q-58 217 -174.5 651.5t-174.5 652.5l-141 -525q-9 -11 -27 -33.5t-27 -33.5q-27 99 -79.5 296t-78.5 296q-58 -217 -174.5 -651.5t-175.5 -652.5h-36z" />
<glyph unicode="N" d="M41 0v1417h24l11 -25l516 -1191v1216h34v-1417h-23l-11 25l-516 1191v-1216h-35z" />
<glyph unicode="O" horiz-adv-x="1544" d="M41 708q0 148 58 283.5t155.5 233t233 155.5t283.5 58t283.5 -58t233.5 -155.5t156 -233t58 -283.5t-58 -283.5t-156 -233t-233.5 -155.5t-283.5 -58t-283.5 58t-233 155.5t-155.5 233t-58 283.5zM110 900q-19 -78 -18 -157q0 -97 28 -193q50 -176 184 -310t310 -184 q96 -28 192 -27q78 1 156 19q174 42 301 168t169 300q19 79 19 158q1 96 -27 192q-50 176 -184 310q-135 134 -311 184q-97 28 -192 27q-79 -1 -157 -19q-174 -42 -301 -168t-169 -300z" />
<glyph unicode="&#xd6;" horiz-adv-x="1544" d="M41 708q0 148 58 283.5t155.5 233t233 155.5t283.5 58t283.5 -58t233.5 -155.5t156 -233t58 -283.5t-58 -283.5t-156 -233t-233.5 -155.5t-283.5 -58t-283.5 58t-233 155.5t-155.5 233t-58 283.5zM110 900q-19 -78 -18 -157q0 -97 28 -193q50 -176 184 -310t310 -184 q96 -28 192 -27q78 1 156 19q174 42 301 168t169 300q19 79 19 158q1 96 -27 192q-50 176 -184 310q-135 134 -311 184q-97 28 -192 27q-79 -1 -157 -19q-174 -42 -301 -168t-169 -300z" />
<glyph unicode="&#xd5;" horiz-adv-x="1544" d="M41 708q0 148 58 283.5t155.5 233t233 155.5t283.5 58t283.5 -58t233.5 -155.5t156 -233t58 -283.5t-58 -283.5t-156 -233t-233.5 -155.5t-283.5 -58t-283.5 58t-233 155.5t-155.5 233t-58 283.5zM110 900q-19 -78 -18 -157q0 -97 28 -193q50 -176 184 -310t310 -184 q96 -28 192 -27q78 1 156 19q174 42 301 168t169 300q19 79 19 158q1 96 -27 192q-50 176 -184 310q-135 134 -311 184q-97 28 -192 27q-79 -1 -157 -19q-174 -42 -301 -168t-169 -300z" />
<glyph unicode="&#xd4;" horiz-adv-x="1544" d="M41 708q0 148 58 283.5t155.5 233t233 155.5t283.5 58t283.5 -58t233.5 -155.5t156 -233t58 -283.5t-58 -283.5t-156 -233t-233.5 -155.5t-283.5 -58t-283.5 58t-233 155.5t-155.5 233t-58 283.5zM110 900q-19 -78 -18 -157q0 -97 28 -193q50 -176 184 -310t310 -184 q96 -28 192 -27q78 1 156 19q174 42 301 168t169 300q19 79 19 158q1 96 -27 192q-50 176 -184 310q-135 134 -311 184q-97 28 -192 27q-79 -1 -157 -19q-174 -42 -301 -168t-169 -300z" />
<glyph unicode="&#xd3;" horiz-adv-x="1544" d="M41 708q0 148 58 283.5t155.5 233t233 155.5t283.5 58t283.5 -58t233.5 -155.5t156 -233t58 -283.5t-58 -283.5t-156 -233t-233.5 -155.5t-283.5 -58t-283.5 58t-233 155.5t-155.5 233t-58 283.5zM110 900q-19 -78 -18 -157q0 -97 28 -193q50 -176 184 -310t310 -184 q96 -28 192 -27q78 1 156 19q174 42 301 168t169 300q19 79 19 158q1 96 -27 192q-50 176 -184 310q-135 134 -311 184q-97 28 -192 27q-79 -1 -157 -19q-174 -42 -301 -168t-169 -300z" />
<glyph unicode="&#xd2;" horiz-adv-x="1544" d="M41 708q0 148 58 283.5t155.5 233t233 155.5t283.5 58t283.5 -58t233.5 -155.5t156 -233t58 -283.5t-58 -283.5t-156 -233t-233.5 -155.5t-283.5 -58t-283.5 58t-233 155.5t-155.5 233t-58 283.5zM110 900q-19 -78 -18 -157q0 -97 28 -193q50 -176 184 -310t310 -184 q96 -28 192 -27q78 1 156 19q174 42 301 168t169 300q19 79 19 158q1 96 -27 192q-50 176 -184 310q-135 134 -311 184q-97 28 -192 27q-79 -1 -157 -19q-174 -42 -301 -168t-169 -300z" />
<glyph unicode="P" horiz-adv-x="669" d="M41 0v1417q69 22 139 22q185 0 316 -131.5t131 -316.5t-131 -316t-316 -131q-40 0 -69 5v-549h-70zM111 586q35 -8 69 -8q157 0 267.5 121t110.5 292t-110.5 292t-267.5 121q-38 0 -69 -7v-811z" />
<glyph unicode="Q" horiz-adv-x="1544" d="M41 708q0 148 58 283.5t155.5 233.5t233 156t283.5 58t283.5 -58t233.5 -156t156 -233.5t58 -283.5q0 -158 -63.5 -298.5t-175.5 -242.5l121 -167h-69l-96 131q-198 -153 -448 -153q-148 0 -283.5 58t-233 155.5t-155.5 233t-58 283.5zM111 900q-19 -79 -19 -158 q0 -96 28 -192q50 -175 184 -309q123 -123 283 -176q109 -36 218 -36q51 0 103 8q161 25 290 123l-278 385h69l253 -349q7 6 21 20q127 127 169 300q18 79 18 158q0 95 -28 192q-50 176 -184 310q-133 133 -308 184q-97 28 -192 28q-79 0 -158 -19q-173 -42 -300 -169 t-169 -300z" />
<glyph unicode="R" horiz-adv-x="796" d="M41 0v1417q69 22 139 22q185 0 316 -131.5t131 -316.5q0 -139 -77 -252t-202 -163l407 -576h-69l-394 558q-56 -14 -112 -14q-34 0 -69 6v-550h-70zM111 586q35 -8 69 -8q157 0 267.5 121t110.5 292t-110.5 292t-267.5 121q-38 0 -69 -7v-811z" />
<glyph unicode="S" horiz-adv-x="657" d="M41 191q40 46 59 68q3 -78 44 -141q31 -49 78 -77.5t101 -28.5q92 0 157.5 75t66.5 181q0 1 0.5 18t0 30t-3 34.5t-9 46t-17.5 50.5q-28 66 -71.5 117.5t-91 86.5t-95 69.5t-95 86.5t-79.5 119q-45 95 -45 217v5q2 120 87.5 205t205.5 85q77 0 143 -37.5t106 -101.5 q23 -39 33 -74q-40 -46 -59 -68q-3 81 -43 142q-30 49 -77.5 77t-102.5 28q-92 0 -157.5 -75t-66.5 -181q0 -2 -0.5 -15t-0.5 -22t1.5 -26.5t4.5 -33t9.5 -37.5t15.5 -44q28 -66 71.5 -117.5t91 -86.5t95.5 -69.5t95 -86.5t79 -119q44 -93 45 -217q0 -3 -1 -6 q-2 -120 -87.5 -205t-205.5 -85q-77 0 -143 38t-106 102q-24 39 -33 73z" />
<glyph unicode="T" d="M41 1382q5 6 15 17.5t15 17.5h555q-5 -6 -15 -17.5t-15 -17.5h-227v-1382h-70v1382h-258z" />
<glyph unicode="U" d="M41 271v1146h70v-1146q0 -107 70 -183t170 -76q99 0 169.5 75t71.5 181v1149h34v-1149q-1 -120 -87 -205t-205 -85q-120 0 -206.5 86t-86.5 207z" />
<glyph unicode="&#xdb;" d="M41 271v1146h70v-1146q0 -107 70 -183t170 -76q99 0 169.5 75t71.5 181v1149h34v-1149q-1 -120 -87 -205t-205 -85q-120 0 -206.5 86t-86.5 207z" />
<glyph unicode="&#xda;" d="M41 271v1146h70v-1146q0 -107 70 -183t170 -76q99 0 169.5 75t71.5 181v1149h34v-1149q-1 -120 -87 -205t-205 -85q-120 0 -206.5 86t-86.5 207z" />
<glyph unicode="&#xd9;" d="M41 271v1146h70v-1146q0 -107 70 -183t170 -76q99 0 169.5 75t71.5 181v1149h34v-1149q-1 -120 -87 -205t-205 -85q-120 0 -206.5 86t-86.5 207z" />
<glyph unicode="V" horiz-adv-x="888" d="M41 1417h72q58 -218 174.5 -652.5t174.5 -652.5q59 218 175.5 652.5t174.5 652.5h36q-61 -229 -183.5 -686t-184.5 -686q-9 -11 -27 -33.5t-27 -33.5q-50 186 -181.5 678.5t-203.5 760.5z" />
<glyph unicode="W" horiz-adv-x="1243" d="M41 1417h72q58 -218 174.5 -652.5t174.5 -652.5l141 525q-35 130 -104.5 390t-104.5 390h72q29 -108 86.5 -323.5t86.5 -322.5q29 107 86.5 322.5t86.5 323.5h36q-32 -119 -95.5 -356.5t-95.5 -356.5q26 -99 78.5 -296t79.5 -296q58 218 174.5 653t175.5 652h36 q-62 -228 -184.5 -686t-183.5 -686q-9 -11 -27 -33.5t-27 -33.5q-26 98 -78.5 295.5t-79.5 296.5l-141 -525q-9 -11 -27 -33.5t-27 -33.5q-64 240 -192.5 719.5t-192.5 719.5z" />
<glyph unicode="X" horiz-adv-x="669" d="M41 0l265 684l-265 733h74l229 -635l246 635h37l-265 -684l265 -733h-74l-229 634l-246 -634h-37z" />
<glyph unicode="Y" horiz-adv-x="669" d="M41 1417h74l229 -635l246 635h37l-259 -667v-751h-69v702z" />
<glyph unicode="&#xdd;" horiz-adv-x="669" d="M41 1417h74l229 -635l246 635h37l-259 -667v-751h-69v702z" />
<glyph unicode="Z" d="M41 0q84 230 251.5 691t251.5 691h-473q-5 6 -15 17.5t-15 17.5h585q-84 -230 -251.5 -691t-251.5 -692h473q5 -6 15 -17.5t15 -17.5h-585v1z" />
<glyph unicode="\" horiz-adv-x="612" d="M41 1417h37l494 -1417h-37z" />
<glyph unicode="_" horiz-adv-x="561" d="M41 0v35h478v-35h-478z" />
<glyph unicode="`" horiz-adv-x="155" d="M41 1385q0 14 10.5 24.5t24.5 10.5q17 0 27 -13q6 -7 9 -18q7 -22 -2.5 -42.5t-21.5 -30.5q-10 -8 -27 -13q-1 3 -2.5 8t-2.5 7q4 1 11 8.5t10 18.5q1 2 1 5h-2q-14 0 -24.5 10.5t-10.5 24.5z" />
<glyph unicode="a" horiz-adv-x="890" d="M41 0l369 1378q9 10 26.5 30t26.5 30l385 -1438h-69l-142 530h-418l-142 -530h-36zM229 565h399l-200 745z" />
<glyph unicode="&#xe4;" horiz-adv-x="890" d="M41 0l369 1378q9 10 26.5 30t26.5 30l385 -1438h-69l-142 530h-418l-142 -530h-36zM229 565h399l-200 745z" />
<glyph unicode="&#xe3;" horiz-adv-x="890" d="M41 0l369 1378q9 10 26.5 30t26.5 30l385 -1438h-69l-142 530h-418l-142 -530h-36zM229 565h399l-200 745z" />
<glyph unicode="&#xe2;" horiz-adv-x="890" d="M41 0l369 1378q9 10 26.5 30t26.5 30l385 -1438h-69l-142 530h-418l-142 -530h-36zM229 565h399l-200 745z" />
<glyph unicode="&#xe1;" horiz-adv-x="890" d="M41 0l369 1378q9 10 26.5 30t26.5 30l385 -1438h-69l-142 530h-418l-142 -530h-36zM229 565h399l-200 745z" />
<glyph unicode="&#xe0;" horiz-adv-x="890" d="M41 0l369 1378q9 10 26.5 30t26.5 30l385 -1438h-69l-142 530h-418l-142 -530h-36zM229 565h399l-200 745z" />
<glyph unicode="b" horiz-adv-x="669" d="M41 0v1404q9 5 27 13q53 21 112 21q124 0 212 -88t88 -212q0 -85 -44 -156t-116 -109q-20 -10 -30 -14q23 -6 62 -21q123 -51 199 -163t76 -250q0 -185 -131 -316t-316 -131q-70 0 -139 22zM111 20q37 -8 69 -8q157 0 267.5 121t110.5 292t-110.5 292t-267.5 121h-69 v-818zM111 873h69q95 0 163 77.5t68 187.5t-68 188t-163 78q-33 0 -69 -13v-518z" />
<glyph unicode="c" horiz-adv-x="1284" d="M41 708q0 148 58 283.5t155.5 233t233 155.5t283.5 58q268 0 472 -172q-7 -8 -22.5 -26t-23.5 -27q-134 115 -302 155q-80 19 -159 19q-86 -1 -172 -23q-164 -44 -285 -164q-127 -126 -169 -300q-19 -78 -18 -157q0 -97 28 -193q50 -176 184 -309q108 -108 246 -162 q126 -49 255 -49h24q142 5 268 67q73 37 135 91l11 -38q-80 -68 -178 -110q-139 -62 -294 -62q-148 0 -283.5 58t-233 155.5t-155.5 233t-58 283.5z" />
<glyph unicode="d" horiz-adv-x="952" d="M41 -9v1434q30 7 70 10q35 3 70 3q123 0 243 -42q154 -54 272 -171q140 -141 190 -329q25 -94 25 -188t-25 -188q-50 -188 -190 -328q-118 -118 -272 -172q-120 -42 -244 -42q-34 0 -69 3q-40 3 -70 10zM111 16q23 -3 69 -3q134 0 256.5 55t211 148t141 222t52.5 270 t-52.5 270t-141 222.5t-211 148.5t-256.5 55q-38 0 -69 -4v-1384z" />
<glyph unicode="e" horiz-adv-x="499" d="M41 0v1417h417q-5 -6 -15 -17.5t-15 -17.5h-317v-489h277q-4 -6 -12.5 -17.5t-12.5 -17.5h-252v-824h317q5 -6 15 -17t15 -17h-417z" />
<glyph unicode="&#xea;" horiz-adv-x="499" d="M41 0v1417h417q-5 -6 -15 -17.5t-15 -17.5h-317v-489h277q-4 -6 -12.5 -17.5t-12.5 -17.5h-252v-824h317q5 -6 15 -17t15 -17h-417z" />
<glyph unicode="&#xe9;" horiz-adv-x="499" d="M41 0v1417h417q-5 -6 -15 -17.5t-15 -17.5h-317v-489h277q-4 -6 -12.5 -17.5t-12.5 -17.5h-252v-824h317q5 -6 15 -17t15 -17h-417z" />
<glyph unicode="&#xe8;" horiz-adv-x="499" d="M41 0v1417h417q-5 -6 -15 -17.5t-15 -17.5h-317v-489h277q-4 -6 -12.5 -17.5t-12.5 -17.5h-252v-824h317q5 -6 15 -17t15 -17h-417z" />
<glyph unicode="f" horiz-adv-x="499" d="M41 0v1417h417q-5 -6 -15 -17.5t-15 -17.5h-317v-489h277q-4 -6 -12.5 -17.5t-12.5 -17.5h-252v-858h-70z" />
<glyph unicode="g" horiz-adv-x="1284" d="M41 708q0 148 58 283.5t155.5 233.5t233 156t283.5 58q132 0 253.5 -45.5t218.5 -127.5q-7 -8 -22.5 -26t-23.5 -27q-134 116 -302 155q-80 19 -159 19q-87 0 -172 -23q-164 -43 -285 -164q-127 -127 -169 -300q-18 -79 -18 -157q0 -96 28 -193q50 -175 184 -309 q108 -108 246 -162q125 -49 255 -49h24q142 5 268 67q37 19 76 45v280h-234q-5 6 -15 17.5t-15 17.5h334v-307q-4 -3 -13 -9.5t-13 -10.5q-72 -55 -152 -90q-139 -62 -294 -62q-148 0 -283.5 58t-233 155.5t-155.5 233t-58 283.5z" />
<glyph unicode="h" d="M41 0v1417h69v-837h447v837h69v-1417h-69v546h-447v-546h-69z" />
<glyph unicode="i" horiz-adv-x="151" d="M41 0v1417h70v-1417h-70z" />
<glyph unicode="&#xee;" horiz-adv-x="151" d="M41 0v1417h70v-1417h-70z" />
<glyph unicode="&#xed;" horiz-adv-x="151" d="M41 0v1417h70v-1417h-70z" />
<glyph unicode="&#xec;" horiz-adv-x="151" d="M41 0v1417h70v-1417h-70z" />
<glyph unicode="j" horiz-adv-x="638" d="M41 256h70q0 -101 61 -172t147 -71t147.5 71t61.5 172v1161h70v-1161q0 -115 -82 -196.5t-197 -81.5t-196.5 81.5t-81.5 196.5z" />
<glyph unicode="k" d="M41 0v1417h70v-526l409 526h44l-435 -559l496 -858h-80l-434 751v-751h-70z" />
<glyph unicode="l" horiz-adv-x="499" d="M41 0v1417h70v-1383h317q5 -6 15 -17t15 -17h-417z" />
<glyph unicode="m" horiz-adv-x="1243" d="M41 0q61 228 183.5 685.5t183.5 686.5l54 66l159 -591l141 525l54 66q64 -240 192.5 -719t192.5 -719h-72q-58 217 -174.5 651.5t-174.5 652.5l-141 -525q-9 -11 -27 -33.5t-27 -33.5q-27 99 -79.5 296t-78.5 296q-58 -217 -174.5 -651.5t-175.5 -652.5h-36z" />
<glyph unicode="n" d="M41 0v1417h24l11 -25l516 -1191v1216h34v-1417h-23l-11 25l-516 1191v-1216h-35z" />
<glyph unicode="o" horiz-adv-x="1544" d="M41 708q0 148 58 283.5t155.5 233t233 155.5t283.5 58t283.5 -58t233.5 -155.5t156 -233t58 -283.5t-58 -283.5t-156 -233t-233.5 -155.5t-283.5 -58t-283.5 58t-233 155.5t-155.5 233t-58 283.5zM110 900q-19 -78 -18 -157q0 -97 28 -193q50 -176 184 -310t310 -184 q96 -28 192 -27q78 1 156 19q174 42 301 168t169 300q19 79 19 158q1 96 -27 192q-50 176 -184 310q-135 134 -311 184q-97 28 -192 27q-79 -1 -157 -19q-174 -42 -301 -168t-169 -300z" />
<glyph unicode="&#xf6;" horiz-adv-x="1544" d="M41 708q0 148 58 283.5t155.5 233t233 155.5t283.5 58t283.5 -58t233.5 -155.5t156 -233t58 -283.5t-58 -283.5t-156 -233t-233.5 -155.5t-283.5 -58t-283.5 58t-233 155.5t-155.5 233t-58 283.5zM110 900q-19 -78 -18 -157q0 -97 28 -193q50 -176 184 -310t310 -184 q96 -28 192 -27q78 1 156 19q174 42 301 168t169 300q19 79 19 158q1 96 -27 192q-50 176 -184 310q-135 134 -311 184q-97 28 -192 27q-79 -1 -157 -19q-174 -42 -301 -168t-169 -300z" />
<glyph unicode="&#xf5;" horiz-adv-x="1544" d="M41 708q0 148 58 283.5t155.5 233t233 155.5t283.5 58t283.5 -58t233.5 -155.5t156 -233t58 -283.5t-58 -283.5t-156 -233t-233.5 -155.5t-283.5 -58t-283.5 58t-233 155.5t-155.5 233t-58 283.5zM110 900q-19 -78 -18 -157q0 -97 28 -193q50 -176 184 -310t310 -184 q96 -28 192 -27q78 1 156 19q174 42 301 168t169 300q19 79 19 158q1 96 -27 192q-50 176 -184 310q-135 134 -311 184q-97 28 -192 27q-79 -1 -157 -19q-174 -42 -301 -168t-169 -300z" />
<glyph unicode="&#xf4;" horiz-adv-x="1544" d="M41 708q0 148 58 283.5t155.5 233t233 155.5t283.5 58t283.5 -58t233.5 -155.5t156 -233t58 -283.5t-58 -283.5t-156 -233t-233.5 -155.5t-283.5 -58t-283.5 58t-233 155.5t-155.5 233t-58 283.5zM110 900q-19 -78 -18 -157q0 -97 28 -193q50 -176 184 -310t310 -184 q96 -28 192 -27q78 1 156 19q174 42 301 168t169 300q19 79 19 158q1 96 -27 192q-50 176 -184 310q-135 134 -311 184q-97 28 -192 27q-79 -1 -157 -19q-174 -42 -301 -168t-169 -300z" />
<glyph unicode="&#xf3;" horiz-adv-x="1544" d="M41 708q0 148 58 283.5t155.5 233t233 155.5t283.5 58t283.5 -58t233.5 -155.5t156 -233t58 -283.5t-58 -283.5t-156 -233t-233.5 -155.5t-283.5 -58t-283.5 58t-233 155.5t-155.5 233t-58 283.5zM110 900q-19 -78 -18 -157q0 -97 28 -193q50 -176 184 -310t310 -184 q96 -28 192 -27q78 1 156 19q174 42 301 168t169 300q19 79 19 158q1 96 -27 192q-50 176 -184 310q-135 134 -311 184q-97 28 -192 27q-79 -1 -157 -19q-174 -42 -301 -168t-169 -300z" />
<glyph unicode="&#xf2;" horiz-adv-x="1544" d="M41 708q0 148 58 283.5t155.5 233t233 155.5t283.5 58t283.5 -58t233.5 -155.5t156 -233t58 -283.5t-58 -283.5t-156 -233t-233.5 -155.5t-283.5 -58t-283.5 58t-233 155.5t-155.5 233t-58 283.5zM110 900q-19 -78 -18 -157q0 -97 28 -193q50 -176 184 -310t310 -184 q96 -28 192 -27q78 1 156 19q174 42 301 168t169 300q19 79 19 158q1 96 -27 192q-50 176 -184 310q-135 134 -311 184q-97 28 -192 27q-79 -1 -157 -19q-174 -42 -301 -168t-169 -300z" />
<glyph unicode="p" horiz-adv-x="669" d="M41 0v1417q69 22 139 22q185 0 316 -131.5t131 -316.5t-131 -316t-316 -131q-40 0 -69 5v-549h-70zM111 586q35 -8 69 -8q157 0 267.5 121t110.5 292t-110.5 292t-267.5 121q-38 0 -69 -7v-811z" />
<glyph unicode="q" horiz-adv-x="1544" d="M41 708q0 148 58 283.5t155.5 233.5t233 156t283.5 58t283.5 -58t233.5 -156t156 -233.5t58 -283.5q0 -158 -63.5 -298.5t-175.5 -242.5l121 -167h-69l-96 131q-198 -153 -448 -153q-148 0 -283.5 58t-233 155.5t-155.5 233t-58 283.5zM111 900q-19 -79 -19 -158 q0 -96 28 -192q50 -175 184 -309q123 -123 283 -176q109 -36 218 -36q51 0 103 8q161 25 290 123l-278 385h69l253 -349q7 6 21 20q127 127 169 300q18 79 18 158q0 95 -28 192q-50 176 -184 310q-133 133 -308 184q-97 28 -192 28q-79 0 -158 -19q-173 -42 -300 -169 t-169 -300z" />
<glyph unicode="r" horiz-adv-x="796" d="M41 0v1417q69 22 139 22q185 0 316 -131.5t131 -316.5q0 -139 -77 -252t-202 -163l407 -576h-69l-394 558q-56 -14 -112 -14q-34 0 -69 6v-550h-70zM111 586q35 -8 69 -8q157 0 267.5 121t110.5 292t-110.5 292t-267.5 121q-38 0 -69 -7v-811z" />
<glyph unicode="s" horiz-adv-x="657" d="M41 191q40 46 59 68q3 -78 44 -141q31 -49 78 -77.5t101 -28.5q92 0 157.5 75t66.5 181q0 1 0.5 18t0 30t-3 34.5t-9 46t-17.5 50.5q-28 66 -71.5 117.5t-91 86.5t-95 69.5t-95 86.5t-79.5 119q-45 95 -45 217v5q2 120 87.5 205t205.5 85q77 0 143 -37.5t106 -101.5 q23 -39 33 -74q-40 -46 -59 -68q-3 81 -43 142q-30 49 -77.5 77t-102.5 28q-92 0 -157.5 -75t-66.5 -181q0 -2 -0.5 -15t-0.5 -22t1.5 -26.5t4.5 -33t9.5 -37.5t15.5 -44q28 -66 71.5 -117.5t91 -86.5t95.5 -69.5t95 -86.5t79 -119q44 -93 45 -217q0 -3 -1 -6 q-2 -120 -87.5 -205t-205.5 -85q-77 0 -143 38t-106 102q-24 39 -33 73z" />
<glyph unicode="t" d="M41 1382q5 6 15 17.5t15 17.5h555q-5 -6 -15 -17.5t-15 -17.5h-227v-1382h-70v1382h-258z" />
<glyph unicode="u" d="M41 271v1146h70v-1146q0 -107 70 -183t170 -76q99 0 169.5 75t71.5 181v1149h34v-1149q-1 -120 -87 -205t-205 -85q-120 0 -206.5 86t-86.5 207z" />
<glyph unicode="&#xfb;" d="M41 271v1146h70v-1146q0 -107 70 -183t170 -76q99 0 169.5 75t71.5 181v1149h34v-1149q-1 -120 -87 -205t-205 -85q-120 0 -206.5 86t-86.5 207z" />
<glyph unicode="&#xfa;" d="M41 271v1146h70v-1146q0 -107 70 -183t170 -76q99 0 169.5 75t71.5 181v1149h34v-1149q-1 -120 -87 -205t-205 -85q-120 0 -206.5 86t-86.5 207z" />
<glyph unicode="&#xf9;" d="M41 271v1146h70v-1146q0 -107 70 -183t170 -76q99 0 169.5 75t71.5 181v1149h34v-1149q-1 -120 -87 -205t-205 -85q-120 0 -206.5 86t-86.5 207z" />
<glyph unicode="v" horiz-adv-x="888" d="M41 1417h72q58 -218 174.5 -652.5t174.5 -652.5q59 218 175.5 652.5t174.5 652.5h36q-61 -229 -183.5 -686t-184.5 -686q-9 -11 -27 -33.5t-27 -33.5q-50 186 -181.5 678.5t-203.5 760.5z" />
<glyph unicode="w" horiz-adv-x="1243" d="M41 1417h72q58 -218 174.5 -652.5t174.5 -652.5l141 525q-35 130 -104.5 390t-104.5 390h72q29 -108 86.5 -323.5t86.5 -322.5q29 107 86.5 322.5t86.5 323.5h36q-32 -119 -95.5 -356.5t-95.5 -356.5q26 -99 78.5 -296t79.5 -296q58 218 174.5 653t175.5 652h36 q-62 -228 -184.5 -686t-183.5 -686q-9 -11 -27 -33.5t-27 -33.5q-26 98 -78.5 295.5t-79.5 296.5l-141 -525q-9 -11 -27 -33.5t-27 -33.5q-64 240 -192.5 719.5t-192.5 719.5z" />
<glyph unicode="x" horiz-adv-x="669" d="M41 0l265 684l-265 733h74l229 -635l246 635h37l-265 -684l265 -733h-74l-229 634l-246 -634h-37z" />
<glyph unicode="y" horiz-adv-x="669" d="M41 1417h74l229 -635l246 635h37l-259 -667v-751h-69v702z" />
<glyph unicode="&#xfd;" horiz-adv-x="669" d="M41 1417h74l229 -635l246 635h37l-259 -667v-751h-69v702z" />
<glyph unicode="z" d="M41 0q84 230 251.5 691t251.5 691h-473q-5 6 -15 17.5t-15 17.5h585q-84 -230 -251.5 -691t-251.5 -692h473q5 -6 15 -17.5t15 -17.5h-585v1z" />
<glyph unicode="|" horiz-adv-x="116" d="M41 -23v1461h35v-1461h-35z" />
<glyph unicode="&#xa1;" horiz-adv-x="151" d="M41 -23q3 208 8.5 625t8.5 626h35l18 -1251h-70zM41 1381q0 14 10.5 24.5t24.5 10.5t24.5 -10.5t10.5 -24.5t-10.5 -24t-24.5 -10t-24.5 10t-10.5 24z" />
<glyph unicode="&#xa9;" horiz-adv-x="976" d="M41 703q0 185 131 316t316 131t316 -131t131 -316t-131 -316t-316 -131t-316 131t-131 316zM110 703q0 -171 110.5 -291.5t267.5 -120.5q156 0 267 120.5t111 291.5t-111 291.5t-267 120.5q-157 0 -267.5 -120.5t-110.5 -291.5zM188 703q0 125 88 212.5t212 87.5 q136 0 225 -100q-6 -7 -20 -20.5t-21 -20.5q-32 50 -80 78.5t-104 28.5q-95 0 -163 -78t-68 -188t68 -187.5t163 -77.5q65 0 119 38.5t84 101.5l23 -73q-89 -102 -226 -102q-124 0 -212 87.5t-88 212.5zM918 579v6v4v-10z" />
<glyph unicode="&#xab;" horiz-adv-x="417" d="M41 706q27 50 80.5 148.5t80.5 148.5h40q-20 -49 -62.5 -147.5t-62.5 -148.5q21 -50 62.5 -149.5t62.5 -148.5h-39zM176 706q27 50 80.5 148.5t80.5 148.5h40q-21 -49 -62.5 -147.5t-62.5 -148.5q21 -49 62.5 -149t62.5 -149h-40q-27 49 -80.5 148t-80.5 149z" />
<glyph unicode="&#xad;" horiz-adv-x="0" />
<glyph unicode="&#xbb;" horiz-adv-x="417" d="M41 409q21 49 62.5 148t62.5 149q-21 49 -62.5 148t-62.5 149h39l162 -297q-27 -49 -80.5 -148.5t-80.5 -148.5h-40zM176 409q21 49 62 148.5t62 148.5q-21 49 -62 148t-62 149h39l162 -297q-27 -49 -80.5 -148.5t-80.5 -148.5h-40z" />
<glyph unicode="&#xbf;" horiz-adv-x="874" d="M41 425q0 85 34 162q22 50 55 89t68.5 66.5t71.5 52.5t74 60.5t65 77.5q76 117 70 295h33q5 -189 -78 -317q-27 -41 -64.5 -79t-71.5 -66t-67.5 -59t-61 -73.5t-42.5 -94.5q-16 -54 -16 -114q0 -171 110.5 -291.5t266.5 -120.5q101 0 187 53.5t136 144.5l22 -71 q-63 -76 -153 -119t-192 -43q-185 0 -316 131t-131 316zM460 1381q0 14 10 24.5t24 10.5t24.5 -10.5t10.5 -24.5t-10.5 -24t-24.5 -10t-24 10t-10 24z" />
<glyph unicode="&#x2000;" horiz-adv-x="759" />
<glyph unicode="&#x2001;" horiz-adv-x="1519" />
<glyph unicode="&#x2002;" horiz-adv-x="759" />
<glyph unicode="&#x2003;" horiz-adv-x="1519" />
<glyph unicode="&#x2004;" horiz-adv-x="506" />
<glyph unicode="&#x2005;" horiz-adv-x="379" />
<glyph unicode="&#x2006;" horiz-adv-x="253" />
<glyph unicode="&#x2007;" horiz-adv-x="253" />
<glyph unicode="&#x2008;" horiz-adv-x="189" />
<glyph unicode="&#x2009;" horiz-adv-x="303" />
<glyph unicode="&#x200a;" horiz-adv-x="84" />
<glyph unicode="&#x2010;" horiz-adv-x="561" d="M41 702v35h478v-35h-478z" />
<glyph unicode="&#x2011;" horiz-adv-x="561" d="M41 702v35h478v-35h-478z" />
<glyph unicode="&#x2012;" horiz-adv-x="561" d="M41 702v35h478v-35h-478z" />
<glyph unicode="&#x2013;" horiz-adv-x="561" d="M41 702v35h478v-35h-478z" />
<glyph unicode="&#x2014;" horiz-adv-x="2131" d="M41 702v35h2048v-35h-2048z" />
<glyph unicode="&#x2018;" horiz-adv-x="155" d="M43 1385q-7 22 3 42t22 30t26 14q1 -3 2.5 -8t2.5 -8q-15 -5 -20 -26q-1 -2 -1 -6h2q14 0 24 -10.5t10 -24.5t-10 -24t-24 -10q-18 0 -27 12q-7 9 -10 19z" />
<glyph unicode="&#x2019;" horiz-adv-x="155" d="M41 1385q0 14 10.5 24.5t24.5 10.5q17 0 27 -13q6 -7 9 -18q7 -22 -2.5 -42.5t-21.5 -30.5q-10 -8 -27 -13q-1 3 -2.5 8t-2.5 7q4 1 11 8.5t10 18.5q1 2 1 5h-2q-14 0 -24.5 10.5t-10.5 24.5z" />
<glyph unicode="&#x201c;" horiz-adv-x="243" d="M43 1385q-7 22 3 42t22 30t26 14q1 -3 2.5 -8t2.5 -8q-15 -5 -20 -26q-1 -2 -1 -6h2q14 0 24 -10.5t10 -24.5t-10 -24t-24 -10q-18 0 -27 12q-7 9 -10 19zM131 1385q-7 22 3 42t22 30t26 14q1 -3 2.5 -8t2.5 -8q-15 -5 -20 -26q-1 -2 -1 -6h2q14 0 24 -10.5t10 -24.5 t-10 -24t-24 -10q-18 0 -27 12q-7 9 -10 19z" />
<glyph unicode="&#x201d;" horiz-adv-x="243" d="M41 1385q0 14 10.5 24.5t24.5 10.5q17 0 27 -13q6 -7 9 -18q7 -22 -2.5 -42.5t-21.5 -30.5q-10 -8 -27 -13q-1 3 -2.5 8t-2.5 7q4 1 11 8.5t10 18.5q1 2 1 5h-2q-14 0 -24.5 10.5t-10.5 24.5zM129 1385q0 14 10.5 24.5t24.5 10.5q16 0 26 -13h1q6 -7 9 -18 q7 -22 -2.5 -42.5t-21.5 -30.5q-10 -8 -27 -13q-1 3 -2.5 8t-2.5 7q4 1 11 8.5t10 18.5q1 2 1 5h-2q-14 0 -24.5 10.5t-10.5 24.5z" />
<glyph unicode="&#x201e;" horiz-adv-x="243" d="M41 33q0 14 10.5 24.5t24.5 10.5q17 0 27 -13q6 -7 9 -18q7 -22 -2.5 -42.5t-21.5 -30.5q-10 -8 -27 -13q-1 3 -2.5 8t-2.5 8q16 5 21 26q1 2 1 6h-2q-14 0 -24.5 10t-10.5 24zM129 33q0 14 10.5 24.5t24.5 10.5q16 0 26 -13h1q6 -7 9 -18q7 -22 -2.5 -42.5t-21.5 -30.5 q-10 -8 -27 -13q-1 3 -2.5 8.5t-2.5 7.5q16 5 21 26q1 2 1 6h-2q-14 0 -24.5 10t-10.5 24z" />
<glyph unicode="&#x2026;" horiz-adv-x="479" d="M41 35q0 14 10.5 24.5t24.5 10.5t24.5 -10.5t10.5 -24.5t-10.5 -24.5t-24.5 -10.5t-24.5 10.5t-10.5 24.5zM205 35q0 14 10 24.5t24 10.5t24.5 -10.5t10.5 -24.5t-10.5 -24.5t-24.5 -10.5t-24 10.5t-10 24.5zM368 35q0 14 10.5 24.5t24.5 10.5t24.5 -10.5t10.5 -24.5 t-10.5 -24.5t-24.5 -10.5t-24.5 10.5t-10.5 24.5z" />
<glyph unicode="&#x202f;" horiz-adv-x="303" />
<glyph unicode="&#x2039;" horiz-adv-x="282" d="M41 707q27 50 80.5 149t80.5 148h40q-20 -50 -62.5 -149t-62.5 -148q21 -50 62.5 -149t62.5 -148h-39z" />
<glyph unicode="&#x203a;" horiz-adv-x="282" d="M41 410q21 50 63 148t62 148q-21 49 -62.5 148.5t-62.5 149.5h39l162 -297q-27 -49 -80.5 -148t-80.5 -149h-40z" />
<glyph unicode="&#x205f;" horiz-adv-x="379" />
<glyph unicode="&#x20ac;" horiz-adv-x="1368" d="M41 453q5 6 15 17.5t15 17.5h87q-15 45 -25 103h-77q5 6 15 17t15 17h43q-5 45 -5 82q0 148 58 283.5t156 233t233.5 155.5t283.5 58q267 0 471 -172q-7 -9 -22 -26.5t-23 -26.5q-134 116 -302 155.5t-332 -4t-285 -164.5q-114 -114 -159 -265.5t-17 -308.5h437 q-5 -6 -15 -17t-15 -17h-400q9 -46 31 -103h385q-5 -6 -15 -17.5t-15 -17.5h-340q54 -119 148 -213q108 -108 246 -162t280 -49t268 67q71 36 134 91l11 -38q-80 -68 -178 -110q-140 -62 -293 -62q-233 0 -420.5 132.5t-265.5 343.5h-128z" />
<glyph unicode="&#x25fc;" horiz-adv-x="1413" d="M0 0v1413h1413v-1413h-1413z" />
</font>
</defs>
</svg>
